<svg width="1680" height="313" viewBox="0 0 1680 313" fill="none" xmlns="http://www.w3.org/2000/svg">
<path d="M108.286 165.56C119.486 164.16 127.606 162.48 132.366 160.24C141.046 156.6 145.526 151 145.526 143.16C145.526 133.64 142.166 127.2 135.446 123.56C128.726 120.2 118.926 118.24 106.046 118.24C91.4856 118.24 81.4056 121.88 75.2456 128.88C71.0456 133.92 67.9656 141.2 66.5656 149.88H8.32563C9.72563 129.72 15.3256 113.2 25.4056 100.32C41.3656 79.8799 68.8056 69.7999 108.006 69.7999C133.486 69.7999 156.166 74.8399 175.766 84.9199C195.646 94.9999 205.726 113.76 205.726 141.48V247.04C205.726 254.32 205.726 263.28 206.286 273.64C206.846 281.48 207.966 286.8 209.926 289.6C211.886 292.4 214.966 294.64 218.886 296.6V305.56H152.806C150.846 300.8 149.726 296.6 148.886 292.4C148.046 288.2 147.486 283.72 147.206 278.4C138.806 287.36 129.006 295.2 118.086 301.36C104.926 308.92 90.0856 312.56 73.5656 312.56C52.5656 312.56 34.9256 306.68 21.2056 294.64C7.76563 283.16 0.765625 266.36 0.765625 244.52C0.765625 216.24 11.6856 195.8 33.8056 182.92C46.1256 175.92 64.0456 171.16 87.5656 168.08L108.286 165.56ZM145.246 193.84C141.326 196.08 137.406 198.04 133.486 199.44C129.566 201.12 124.246 202.52 117.246 203.64L103.526 206.16C90.6456 208.4 81.1256 211.2 75.5256 214.56C66.0056 220.16 61.2456 228.56 61.2456 240.04C61.2456 250.4 64.0456 257.68 69.9256 262.44C75.8056 266.92 82.8056 269.44 91.2056 269.44C104.366 269.44 116.686 265.52 127.886 257.96C139.086 250.4 144.686 236.4 145.246 216.24V193.84Z" fill="#E3E3E3"/>
<path d="M416.086 95.2799C431.206 107.88 438.766 128.32 438.766 157.44V312.56H376.606V172.56C376.606 160.52 374.926 151.28 371.846 144.56C365.966 132.8 354.766 126.92 337.966 126.92C317.526 126.92 303.526 135.6 295.966 152.96C292.046 162.2 290.086 173.68 290.086 187.96V312.56H229.886V82.3999H288.406V116C296.246 104.24 303.526 95.5599 310.526 90.5199C322.846 81.2799 338.526 76.5199 357.566 76.5199C381.646 76.5199 400.966 82.9599 416.086 95.2799Z" fill="#E3E3E3"/>
<path d="M449.766 123.967V80.8469H481.966V16.7269H541.886V80.8469H579.406V123.687H541.886V245.487C541.886 255.007 543.006 260.887 545.526 263.127C548.046 265.367 555.326 266.487 567.646 266.487C569.606 266.487 571.566 266.487 573.526 266.487C575.486 266.487 577.726 266.207 579.686 266.207V311.287L551.126 312.407C522.566 313.527 502.966 308.487 492.606 297.567C485.886 290.567 482.526 279.927 482.526 265.647V123.967H449.766Z" fill="#E3E3E3"/>
<path d="M798.166 276.44C778.566 300.52 748.886 312.56 709.126 312.56C669.366 312.56 639.686 300.52 620.086 276.44C600.486 252.36 590.686 223.52 590.686 189.64C590.686 156.32 600.486 127.76 620.086 103.4C639.686 79.04 669.366 67 709.126 67C748.886 67 778.566 79.04 798.166 103.4C817.766 127.76 827.566 156.6 827.566 189.64C827.566 223.52 817.766 252.36 798.166 276.44ZM749.726 243.12C759.246 230.52 764.006 212.88 764.006 189.64C764.006 166.68 759.246 148.76 749.726 136.44C740.206 124.12 726.766 117.68 708.846 117.68C691.206 117.68 677.486 123.84 667.966 136.44C658.446 148.76 653.686 166.68 653.686 189.64C653.686 212.6 658.446 230.52 667.966 243.12C677.486 255.72 691.206 261.88 708.846 261.88C726.766 261.88 740.206 255.72 749.726 243.12Z" fill="#E3E3E3"/>
<path d="M1025.05 95.2799C1040.17 107.88 1047.73 128.32 1047.73 157.44V312.56H985.565V172.56C985.565 160.52 983.885 151.28 980.805 144.56C974.925 132.8 963.725 126.92 946.925 126.92C926.485 126.92 912.485 135.6 904.925 152.96C901.005 162.2 899.045 173.68 899.045 187.96V312.56H838.565V82.3999H897.085V116C904.925 104.24 912.205 95.5599 919.205 90.5199C931.525 81.2799 947.205 76.5199 966.525 76.5199C990.605 76.5199 1009.93 82.9599 1025.05 95.2799Z" fill="#E3E3E3"/>
<path d="M1227.85 79.0399C1244.09 86.3199 1257.25 97.5199 1267.89 113.2C1277.41 126.92 1283.57 142.88 1286.37 160.8C1288.05 171.44 1288.61 186.56 1288.33 206.44H1119.77C1120.61 229.68 1128.73 245.64 1143.85 255.16C1153.09 261.04 1164.29 263.84 1177.17 263.84C1190.89 263.84 1202.09 260.2 1210.77 253.2C1215.53 249.28 1219.73 244.24 1223.09 237.24H1284.97C1283.29 250.96 1275.73 264.68 1262.57 278.96C1241.85 301.36 1212.73 312.56 1175.49 312.56C1144.69 312.56 1117.53 303.04 1094.01 284.28C1070.49 265.52 1058.73 234.72 1058.73 192.16C1058.73 152.12 1069.37 121.6 1090.65 100.32C1111.93 79.0399 1139.65 68.3999 1173.53 68.3999C1193.41 68.1199 1211.61 71.7599 1227.85 79.0399ZM1137.13 130.84C1128.45 139.52 1123.13 151.56 1120.89 166.4H1225.33C1224.21 150.44 1218.89 138.4 1209.09 130C1199.29 121.6 1187.53 117.68 1173.25 117.68C1157.85 117.68 1145.81 122.16 1137.13 130.84Z" fill="#E3E3E3"/>
<path d="M1359.87 312.56H1299.39V0.919922H1359.87V312.56Z" fill="#E3E3E3"/>
<path d="M1431.35 312.56H1370.88V0.919922H1431.35V312.56Z" fill="#E3E3E3"/>
<path d="M1649.83 276.44C1630.23 300.52 1600.55 312.56 1560.79 312.56C1521.03 312.56 1491.35 300.52 1471.75 276.44C1452.15 252.36 1442.35 223.52 1442.35 189.64C1442.35 156.32 1452.15 127.76 1471.75 103.4C1491.35 79.04 1521.03 67 1560.79 67C1600.55 67 1630.23 79.04 1649.83 103.4C1669.43 127.76 1679.23 156.6 1679.23 189.64C1679.23 223.52 1669.43 252.36 1649.83 276.44ZM1601.39 243.12C1610.91 230.52 1615.67 212.88 1615.67 189.64C1615.67 166.68 1610.91 148.76 1601.39 136.44C1591.87 124.12 1578.43 117.68 1560.51 117.68C1542.59 117.68 1529.15 123.84 1519.63 136.44C1510.11 148.76 1505.35 166.68 1505.35 189.64C1505.35 212.6 1510.11 230.52 1519.63 243.12C1529.15 255.72 1542.87 261.88 1560.51 261.88C1578.15 261.88 1591.87 255.72 1601.39 243.12Z" fill="#E3E3E3"/>
</svg>
