<svg width="294" height="294" viewBox="0 0 294 294" fill="none" xmlns="http://www.w3.org/2000/svg">
<path d="M90.9507 83.9372L104.958 90.9512V111.972L118.986 104.958V83.9372L104.958 76.9442L90.9507 83.9372Z" fill="#ED6630"/>
<path d="M104.958 125.98V210.064L118.986 203.05V118.987L104.958 111.973L90.9512 118.987L104.958 125.98Z" fill="#ED6630"/>
<path d="M154.014 210.064L168.021 203.05V118.987L154.014 111.973L139.986 118.987L154.014 125.98V210.064Z" fill="#ED6630"/>
<path d="M76.9438 104.958L90.9509 97.9654V83.9374L76.9438 90.9514V104.958Z" fill="#ED6630"/>
<path d="M189.042 189.042L175.014 196.035V210.063L189.042 217.056L203.049 210.063L189.042 203.049V189.042Z" fill="#ED6630"/>
<path d="M125.979 210.063L139.986 217.056L154.014 210.063L139.986 203.049V118.986V83.9374L125.979 90.9514V210.063Z" fill="#ED6630"/>
<path d="M90.9509 125.978L76.9438 132.992V210.062L90.9509 217.055L104.958 210.062L90.9509 203.048V125.978Z" fill="#ED6630"/>
<path d="M139.986 83.9372L154.014 90.9512V104.958L168.021 97.9652V83.9372L154.014 76.9442L139.986 83.9372Z" fill="#ED6630"/>
<path d="M189.042 83.9374L175.014 90.9514V175.014L189.042 182.028L203.049 175.014L189.042 168.021V83.9374Z" fill="#ED6630"/>
<path d="M203.049 76.9442L189.042 83.9372L203.049 90.9512V111.972V175.014V210.063L217.056 203.049V104.958V83.9372L203.049 76.9442Z" fill="#ED6630"/>
<path d="M33.705 123.48L29.169 119.679L32.193 108.969L38.052 108.129L38.724 105.735L16.38 109.095L15.792 111.174L33.054 125.748L33.705 123.48ZM18.69 110.922L29.988 109.305L27.447 118.272L18.69 110.922Z" fill="#6B6B6B"/>
<path d="M41.2438 100.464L26.3128 92.8197L47.2498 88.7037L48.0898 87.0657L29.9038 77.7417L28.8748 79.7577L43.4698 87.2127L23.0158 91.2027L22.0288 93.1347L40.2148 102.459L41.2438 100.464Z" fill="#6B6B6B"/>
<path d="M39.921 67.0947L54.474 78.2247L55.881 76.3767L41.328 65.2677L45.507 59.8077L43.806 58.5267L34.062 71.2527L35.763 72.5547L39.921 67.0947Z" fill="#6B6B6B"/>
<path d="M54.222 61.9278C55.188 62.9778 56.28 63.7968 57.519 64.4058C58.737 65.0148 60.018 65.3508 61.341 65.4348C62.664 65.5188 63.987 65.3508 65.31 64.8888C66.633 64.4478 67.872 63.6918 69.006 62.6418C70.161 61.5918 71.001 60.4158 71.568 59.1138C72.135 57.8118 72.408 56.5098 72.429 55.1658C72.45 53.8218 72.198 52.5198 71.715 51.2388C71.232 49.9578 70.497 48.8028 69.531 47.7528C68.565 46.7028 67.473 45.8838 66.234 45.2748C65.016 44.6658 63.735 44.3298 62.391 44.2458C61.068 44.1618 59.745 44.3298 58.422 44.7918C57.099 45.2328 55.86 45.9888 54.726 47.0388C53.592 48.0888 52.731 49.2648 52.164 50.5668C51.618 51.8688 51.324 53.1708 51.303 54.5148C51.282 55.8588 51.534 57.1608 52.017 58.4418C52.542 59.7228 53.277 60.8778 54.222 61.9278ZM54.222 51.3228C54.642 50.3358 55.293 49.4538 56.154 48.6558C57.015 47.8578 57.96 47.2908 58.989 46.9548C60.018 46.6188 61.047 46.4928 62.097 46.5558C63.147 46.6188 64.155 46.9128 65.142 47.3958C66.129 47.8788 67.032 48.5508 67.809 49.4118C68.607 50.2728 69.195 51.2178 69.594 52.2258C69.993 53.2548 70.182 54.2838 70.182 55.3128C70.182 56.3418 69.972 57.3498 69.531 58.3368C69.111 59.3238 68.46 60.2058 67.599 61.0038C66.738 61.8018 65.793 62.3688 64.764 62.7048C63.735 63.0408 62.706 63.1668 61.656 63.1038C60.606 63.0408 59.598 62.7468 58.611 62.2638C57.624 61.7808 56.721 61.1088 55.944 60.2478C55.146 59.3868 54.558 58.4418 54.159 57.4338C53.76 56.4048 53.571 55.3758 53.571 54.3468C53.571 53.3178 53.781 52.3098 54.222 51.3228Z" fill="#6B6B6B"/>
<path d="M82.0472 51.6395L73.3952 37.2755L93.3452 44.8355L94.9202 43.8905L84.3782 26.3765L82.4462 27.5315L90.9092 41.5595L71.4212 34.1675L69.5732 35.2805L80.1152 52.7945L82.0472 51.6395Z" fill="#6B6B6B"/>
<path d="M113.883 36.3937L113.148 34.4197L101.346 38.8717L98.8258 32.1727L109.263 28.2457L108.528 26.2717L98.0908 30.1987L95.6338 23.6677L107.31 19.2787L106.575 17.3047L92.7358 22.5127L99.9178 41.6437L113.883 36.3937Z" fill="#6B6B6B"/>
<path d="M131.859 32.6134L131.439 30.5344L120.162 32.7604L116.592 14.8054L114.324 15.2464L118.314 35.3014L131.859 32.6134Z" fill="#6B6B6B"/>
<path d="M149.856 31.6893L149.772 29.5683L138.285 30.0303L137.55 11.7183L135.24 11.8233L136.059 32.2353L149.856 31.6893Z" fill="#6B6B6B"/>
<path d="M155.127 29.1476C155.904 30.2186 156.891 31.1216 158.088 31.8566C159.285 32.5916 160.65 33.0536 162.183 33.2636C163.737 33.4736 165.165 33.3686 166.53 32.9696C167.874 32.5706 169.071 31.9406 170.1 31.1006C171.129 30.2606 171.99 29.2316 172.662 28.0346C173.334 26.8376 173.754 25.5356 173.943 24.1286C174.132 22.7216 174.069 21.3566 173.733 20.0126C173.418 18.6896 172.851 17.4716 172.074 16.4006C171.297 15.3296 170.31 14.4266 169.113 13.6916C167.916 12.9566 166.551 12.4946 165.018 12.2846C163.464 12.0746 162.036 12.1796 160.671 12.5786C159.327 12.9776 158.13 13.6076 157.101 14.4476C156.072 15.2876 155.211 16.3166 154.539 17.5136C153.867 18.7106 153.447 20.0126 153.258 21.4196C153.069 22.8266 153.132 24.1916 153.468 25.5356C153.804 26.8796 154.35 28.0766 155.127 29.1476ZM155.652 21.6926C155.799 20.5376 156.156 19.4666 156.681 18.5216C157.206 17.5556 157.878 16.7576 158.676 16.0856C159.474 15.4346 160.377 14.9516 161.406 14.6366C162.435 14.3216 163.527 14.2586 164.682 14.4056C165.837 14.5526 166.887 14.9306 167.79 15.4976C168.714 16.0856 169.47 16.7786 170.1 17.6396C170.709 18.4796 171.15 19.4456 171.402 20.5166C171.654 21.5876 171.717 22.7006 171.57 23.8766C171.423 25.0316 171.066 26.1026 170.541 27.0476C170.016 28.0136 169.344 28.8116 168.546 29.4836C167.748 30.1346 166.845 30.6176 165.816 30.9326C164.787 31.2266 163.695 31.3106 162.54 31.1636C161.385 31.0166 160.335 30.6386 159.432 30.0716C158.508 29.5046 157.752 28.7906 157.143 27.9506C156.534 27.1106 156.093 26.1446 155.841 25.0736C155.547 23.9816 155.484 22.8476 155.652 21.6926Z" fill="#6B6B6B"/>
<path d="M200.802 45.5702C201.705 46.0322 202.587 46.3472 203.469 46.5152C204.351 46.6622 205.191 46.6622 205.968 46.4942C206.745 46.3262 207.459 46.0112 208.089 45.5282C208.74 45.0452 209.244 44.4152 209.664 43.6382C210.399 42.2312 210.483 40.8872 209.958 39.6062C209.412 38.3042 208.257 36.9182 206.472 35.4062C205.59 34.6712 204.876 34.0202 204.372 33.4532C203.847 32.8862 203.49 32.3612 203.28 31.8992C203.07 31.4162 202.986 30.9752 203.028 30.5552C203.07 30.1352 203.217 29.7152 203.427 29.2742C203.637 28.8542 203.931 28.5182 204.309 28.2452C204.687 27.9722 205.107 27.8042 205.569 27.7202C206.031 27.6362 206.556 27.6362 207.102 27.7412C207.648 27.8252 208.236 28.0352 208.803 28.3502C209.727 28.8332 210.546 29.4632 211.239 30.2192C211.932 30.9752 212.52 31.9202 213.003 33.0542L215.019 32.1092C214.473 30.8912 213.801 29.8412 213.003 28.9382C212.205 28.0562 211.134 27.2582 209.811 26.5652C208.95 26.1032 208.089 25.8302 207.228 25.6832C206.367 25.5572 205.569 25.5782 204.792 25.7252C204.036 25.8932 203.343 26.1872 202.734 26.6492C202.125 27.0902 201.621 27.6782 201.243 28.4132C200.844 29.1692 200.613 29.8832 200.571 30.5762C200.529 31.2482 200.634 31.9412 200.928 32.6132C201.201 33.2852 201.663 33.9782 202.272 34.6712C202.881 35.3642 203.658 36.0992 204.582 36.8762C205.422 37.5902 206.094 38.1992 206.598 38.7452C207.102 39.2912 207.438 39.7952 207.648 40.2572C207.858 40.7192 207.921 41.1392 207.9 41.5592C207.858 41.9792 207.732 42.3992 207.501 42.8192C207.018 43.7432 206.262 44.3102 205.212 44.4992C204.183 44.6882 203.049 44.4572 201.831 43.8062C200.571 43.1552 199.563 42.3572 198.828 41.4122C198.093 40.4882 197.463 39.3332 196.959 37.9892L194.901 38.8292C195.468 40.3832 196.245 41.7062 197.19 42.7982C198.156 43.8692 199.353 44.8142 200.802 45.5702Z" fill="#6B6B6B"/>
<path d="M214.914 54.0536L216.762 55.4396L227.703 40.7606L233.205 44.8766L234.486 43.1756L221.634 33.5786L220.353 35.2796L225.855 39.3956L214.914 54.0536Z" fill="#6B6B6B"/>
<path d="M229.005 59.283C228.48 60.333 228.186 61.404 228.165 62.454C228.123 63.504 228.333 64.554 228.774 65.562C229.215 66.591 229.866 67.557 230.727 68.481C231.609 69.426 232.533 70.14 233.541 70.623C234.528 71.127 235.557 71.379 236.628 71.421C237.699 71.442 238.77 71.232 239.883 70.749C240.975 70.266 242.088 69.531 243.18 68.502L251.706 60.48L250.131 58.8L241.479 66.948C239.841 68.481 238.245 69.237 236.649 69.195C235.074 69.153 233.625 68.46 232.344 67.074C231 65.646 230.37 64.113 230.496 62.496C230.601 60.879 231.462 59.304 233.079 57.792L241.626 49.749L240.051 48.069L231.399 56.217C230.328 57.204 229.551 58.212 229.005 59.283Z" fill="#6B6B6B"/>
<path d="M243.705 84.4828C244.566 85.8268 245.553 86.9398 246.729 87.7798C247.884 88.6198 249.102 89.2078 250.404 89.5438C251.685 89.8588 253.008 89.9218 254.352 89.6908C255.696 89.4598 256.977 88.9558 258.195 88.1998C259.413 87.4228 260.4 86.4988 261.177 85.3858C261.954 84.2728 262.458 83.0758 262.731 81.7738C262.983 80.4718 262.983 79.1068 262.71 77.7208C262.437 76.3138 261.87 74.9488 261.009 73.5838L257.208 67.5778L239.925 78.4978L243.705 84.4828ZM259.182 74.6968C259.875 75.7888 260.316 76.8808 260.526 77.9938C260.736 79.1068 260.715 80.1568 260.505 81.1648C260.274 82.1728 259.854 83.1178 259.224 83.9788C258.594 84.8398 257.817 85.5748 256.851 86.1838C255.885 86.7928 254.877 87.1918 253.848 87.3808C252.819 87.5698 251.79 87.5488 250.782 87.3178C249.774 87.0868 248.808 86.6458 247.905 85.9738C247.002 85.3018 246.204 84.4198 245.511 83.3488L242.949 79.2958L256.62 70.6438L259.182 74.6968Z" fill="#6B6B6B"/>
<path d="M270.118 90.1111L251.516 98.5642L252.471 100.667L271.073 92.2141L270.118 90.1111Z" fill="#6B6B6B"/>
<path d="M277.746 109.515C277.305 108.024 276.633 106.743 275.73 105.651C274.827 104.58 273.777 103.74 272.58 103.131C271.383 102.522 270.123 102.144 268.758 102.018C267.393 101.892 266.028 102.018 264.663 102.417C263.298 102.816 262.08 103.425 260.988 104.244C259.896 105.084 259.014 106.071 258.342 107.205C257.67 108.36 257.229 109.62 257.04 111.006C256.851 112.392 256.977 113.82 257.397 115.332C257.838 116.823 258.51 118.104 259.413 119.196C260.316 120.267 261.366 121.107 262.563 121.716C263.76 122.325 265.02 122.703 266.385 122.829C267.75 122.955 269.115 122.829 270.48 122.43C271.845 122.031 273.063 121.422 274.155 120.603C275.247 119.763 276.129 118.776 276.801 117.642C277.473 116.487 277.914 115.227 278.103 113.841C278.313 112.455 278.187 111.006 277.746 109.515ZM275.94 113.337C275.772 114.408 275.436 115.395 274.911 116.298C274.386 117.201 273.672 117.978 272.79 118.65C271.908 119.322 270.9 119.805 269.787 120.141C268.653 120.456 267.561 120.582 266.469 120.477C265.377 120.372 264.369 120.099 263.445 119.637C262.521 119.175 261.723 118.524 261.009 117.705C260.316 116.886 259.812 115.899 259.476 114.786C259.161 113.673 259.077 112.56 259.224 111.51C259.392 110.439 259.728 109.452 260.253 108.549C260.778 107.646 261.492 106.869 262.374 106.197C263.256 105.525 264.264 105.042 265.377 104.706C266.49 104.391 267.603 104.265 268.695 104.37C269.787 104.475 270.795 104.748 271.719 105.21C272.643 105.672 273.441 106.323 274.155 107.142C274.848 107.961 275.352 108.948 275.688 110.061C276.024 111.174 276.087 112.266 275.94 113.337Z" fill="#6B6B6B"/>
<path d="M38.7868 212.919C39.6268 213.297 40.5298 213.465 41.4538 213.444C42.3988 213.423 43.3438 213.15 44.3308 212.604C45.2128 212.121 45.9268 211.533 46.4728 210.819C47.0188 210.105 47.3548 209.328 47.5228 208.488C47.6908 207.627 47.6698 206.724 47.4808 205.737C47.2918 204.771 46.9348 203.763 46.3678 202.755L42.7138 196.035L24.7588 205.821L25.8718 207.837L32.2138 204.393L34.5868 208.761C35.1118 209.727 35.7208 210.567 36.4348 211.281C37.1488 211.995 37.9258 212.541 38.7868 212.919ZM34.0618 203.406L41.9578 199.101L44.4358 203.658C45.2338 205.107 45.5488 206.472 45.3598 207.711C45.1708 208.95 44.4358 209.916 43.1548 210.63C42.5458 210.945 41.9578 211.134 41.3278 211.176C40.7188 211.218 40.1098 211.113 39.5218 210.861C38.9338 210.609 38.3878 210.231 37.8628 209.727C37.3378 209.223 36.8758 208.593 36.4768 207.858L34.0618 203.406Z" fill="#6B6B6B"/>
<path d="M55.5031 230.286C56.1961 230.076 56.8891 229.719 57.5611 229.173C58.2751 228.606 58.8211 227.955 59.1991 227.199C59.5771 226.464 59.7661 225.666 59.7871 224.826C59.8081 223.986 59.6401 223.125 59.3041 222.243C58.9681 221.361 58.4431 220.458 57.7501 219.576L52.2691 212.709L36.2671 225.435L37.6951 227.241L43.9111 222.285L47.5441 226.863L45.0241 236.439L46.7881 238.665L49.4131 228.564C50.0221 229.11 50.6521 229.53 51.3451 229.866C52.0381 230.202 52.7101 230.391 53.4241 230.475C54.1171 230.538 54.8101 230.475 55.5031 230.286ZM50.9881 227.409C50.4421 227.031 49.9171 226.548 49.4551 225.939L45.5281 221.025L52.0381 215.838L55.9861 220.794C57.0151 222.096 57.5401 223.314 57.5611 224.49C57.5821 225.645 57.0781 226.632 56.0701 227.43C55.5451 227.85 54.9991 228.123 54.4321 228.228C53.8441 228.354 53.2771 228.333 52.7101 228.207C52.1011 228.06 51.5341 227.787 50.9881 227.409Z" fill="#6B6B6B"/>
<path d="M66.2418 228.964L52.0327 243.647L53.6927 245.253L67.9018 230.57L66.2418 228.964Z" fill="#6B6B6B"/>
<path d="M84.651 244.02L68.313 253.827L72.933 235.347L70.854 233.814L65.688 255.612L67.347 256.83L86.646 245.49L84.651 244.02Z" fill="#6B6B6B"/>
<path d="M76.6079 263.298L78.7289 264.369L83.3279 260.652L93.2609 265.671L92.9669 271.572L95.1719 272.685L96.1589 250.11L94.2269 249.123L76.6079 263.298ZM93.3659 263.424L85.0499 259.224L93.9329 252.042L93.3659 263.424Z" fill="#6B6B6B"/>
<path d="M103.656 256.242L110.208 258.321L104.622 275.772L106.827 276.465L112.392 259.035L118.944 261.114L119.574 259.077L104.307 254.205L103.656 256.242Z" fill="#6B6B6B"/>
<path d="M120.75 280.162L135.513 282.283L135.807 280.183L123.333 278.398L124.341 271.321L135.387 272.896L135.681 270.817L124.635 269.242L125.622 262.333L137.97 264.097L138.264 262.018L123.648 259.918L120.75 280.162Z" fill="#6B6B6B"/>
<path d="M167.202 278.901L163.926 260.883L161.658 261.303L165.333 281.4L178.92 278.922L178.521 276.822L167.202 278.901Z" fill="#6B6B6B"/>
<path d="M181.887 256.642L179.68 257.323L185.704 276.847L187.911 276.166L181.887 256.642Z" fill="#6B6B6B"/>
<path d="M203.217 247.612L201.327 260.884L189.798 254.059L187.677 255.067L196.539 273.505L198.555 272.518L191.415 257.629L202.839 264.244L202.944 264.202L204.918 251.098L212.1 266.029L214.179 265.021L205.317 246.604L203.217 247.612Z" fill="#6B6B6B"/>
<path d="M212.093 241.798L210.179 243.092L221.626 260.019L223.539 258.725L212.093 241.798Z" fill="#6B6B6B"/>
<path d="M229.593 230.328L228.186 228.711L216.09 239.232L217.497 240.849L222.663 236.334L234.675 250.152L236.418 248.64L224.406 234.822L229.593 230.328Z" fill="#6B6B6B"/>
<path d="M246.624 235.599L241.122 231.042L248.22 222.432L246.603 221.109L239.484 229.698L234.108 225.246L242.067 215.649L240.45 214.305L231.021 225.687L246.771 238.707L256.284 227.22L254.667 225.876L246.624 235.599Z" fill="#6B6B6B"/>
<path d="M263.802 202.671C262.962 201.6 261.912 200.718 260.652 200.004C259.392 199.29 258.09 198.87 256.746 198.723C255.402 198.576 254.1 198.702 252.819 199.08C251.559 199.479 250.362 200.13 249.27 201.033C248.178 201.936 247.233 203.091 246.456 204.498L242.991 210.693L260.82 220.689L264.285 214.494C265.062 213.108 265.545 211.701 265.734 210.273C265.923 208.845 265.86 207.501 265.524 206.22C265.23 204.918 264.642 203.742 263.802 202.671ZM263.613 210.084C263.445 211.197 263.067 212.31 262.437 213.444L260.106 217.623L245.994 209.727L248.325 205.548C248.955 204.435 249.711 203.511 250.593 202.797C251.475 202.083 252.399 201.579 253.407 201.306C254.394 201.033 255.423 200.949 256.494 201.096C257.565 201.243 258.573 201.579 259.56 202.125C260.568 202.692 261.387 203.385 262.038 204.204C262.689 205.023 263.151 205.947 263.445 206.934C263.697 207.921 263.76 208.971 263.613 210.084Z" fill="#6B6B6B"/>
<path d="M238.623 200.109C238.665 200.067 238.728 200.025 238.77 199.983C238.812 199.899 238.833 199.815 238.854 199.731C247.821 184.191 252.966 166.194 252.966 147C252.966 127.806 247.821 109.809 238.854 94.2692C238.833 94.1852 238.812 94.1012 238.77 94.0172C238.728 93.9332 238.665 93.8912 238.602 93.8282C220.206 62.3072 186.06 41.0552 147 41.0552C107.94 41.0552 73.7942 62.3072 55.4192 93.8282C55.3562 93.8912 55.2932 93.9332 55.2512 94.0172C55.2092 94.1012 55.1882 94.1852 55.1672 94.2692C46.2002 109.809 41.0552 127.806 41.0552 147C41.0552 166.194 46.2002 184.191 55.1672 199.731C55.1882 199.815 55.2092 199.899 55.2512 199.983C55.2932 200.046 55.3352 200.067 55.3982 200.109C73.7732 231.672 107.94 252.945 147.021 252.945C186.081 252.945 220.248 231.672 238.623 200.109ZM237.426 198.009L225.645 191.205L200.109 147L225.624 102.795L237.405 95.9912C245.952 111.069 250.845 128.457 250.845 147C250.845 165.543 245.973 182.931 237.426 198.009ZM147 234.843L122.85 193.011H171.15L147 234.843ZM121.653 190.911L96.2852 147L121.632 103.089H172.347L197.715 147L172.347 190.911H121.653ZM119.238 190.911H70.9382L95.0882 149.079L119.238 190.911ZM95.0882 144.921L70.9382 103.089H119.238L95.0882 144.921ZM147 59.1572L171.15 100.989H122.85L147 59.1572ZM174.762 103.089H223.062L198.912 144.921L174.762 103.089ZM198.912 149.079L223.062 190.911H174.762L198.912 149.079ZM236.376 94.1852L224.595 100.989H173.565L148.05 56.8052V43.1762C185.598 43.5332 218.442 63.9452 236.376 94.1852ZM145.95 43.1552V56.7842L120.435 100.989H69.4052L57.6242 94.1852C75.5582 63.9452 108.402 43.5332 145.95 43.1552ZM56.5742 95.9912L68.3552 102.795L93.8912 147L68.3552 191.205L56.5742 198.009C48.0272 182.931 43.1342 165.543 43.1342 147C43.1342 128.457 48.0272 111.069 56.5742 95.9912ZM57.6242 199.815L69.4052 193.011H120.435L145.95 237.216V250.845C108.402 250.467 75.5582 230.055 57.6242 199.815ZM148.05 250.845V237.216L173.565 193.011H224.595L236.376 199.815C218.442 230.055 185.598 250.467 148.05 250.845Z" fill="#6B6B6B"/>
<path d="M147 0C65.94 0 0 65.94 0 147C0 228.06 65.94 294 147 294C228.06 294 294 228.06 294 147C294 65.94 228.06 0 147 0ZM147 291.921C67.095 291.921 2.079 226.905 2.079 147C2.079 67.095 67.095 2.079 147 2.079C226.905 2.079 291.921 67.095 291.921 147C291.921 226.905 226.905 291.921 147 291.921Z" fill="#6B6B6B"/>
</svg>
