<svg width="250" height="47" viewBox="0 0 250 47" fill="none" xmlns="http://www.w3.org/2000/svg">
<path d="M15.8177 24.7975C17.4654 24.5916 18.6599 24.3444 19.3602 24.0149C20.6372 23.4794 21.2962 22.6556 21.2962 21.5022C21.2962 20.1017 20.8019 19.1543 19.8133 18.6188C18.8247 18.1245 17.383 17.8361 15.4882 17.8361C13.3462 17.8361 11.8633 18.3716 10.9571 19.4014C10.3392 20.1429 9.88607 21.2139 9.68011 22.4908H1.11218C1.31814 19.525 2.14198 17.0947 3.62489 15.1998C5.97283 12.1928 10.0096 10.7099 15.7765 10.7099C19.525 10.7099 22.8615 11.4514 25.745 12.9343C28.6696 14.4172 30.1525 17.177 30.1525 21.255V36.7844C30.1525 37.8554 30.1525 39.1735 30.2349 40.6976C30.3173 41.851 30.482 42.6337 30.7704 43.0456C31.0587 43.4575 31.5118 43.787 32.0885 44.0754V45.3935H22.3672C22.0789 44.6933 21.9141 44.0754 21.7905 43.4575C21.667 42.8396 21.5846 42.1805 21.5434 41.3979C20.3076 42.716 18.8659 43.8694 17.2594 44.7756C15.3234 45.8878 13.1402 46.4233 10.7099 46.4233C7.62051 46.4233 5.02542 45.5583 3.00701 43.787C1.0298 42.0982 0 39.6266 0 36.4137C0 32.2533 1.60649 29.2463 4.86065 27.3514C6.67309 26.3217 9.30938 25.6214 12.7695 25.1683L15.8177 24.7975ZM21.255 28.9579C20.6784 29.2875 20.1017 29.5758 19.525 29.7818C18.9483 30.0289 18.1656 30.2349 17.1358 30.3997L15.1174 30.7704C13.2226 31.0999 11.8221 31.5118 10.9982 32.0061C9.59772 32.83 8.89746 34.0657 8.89746 35.7546C8.89746 37.2787 9.30938 38.3497 10.1744 39.05C11.0394 39.709 12.0692 40.0798 13.305 40.0798C15.241 40.0798 17.0535 39.5031 18.7011 38.3909C20.3488 37.2787 21.1727 35.2191 21.255 32.2533V28.9579Z" fill="#E3E3E3"/>
<path d="M61.481 14.4584C63.7054 16.312 64.8176 19.319 64.8176 23.603V46.4233H55.673V25.8273C55.673 24.0561 55.4258 22.6968 54.9727 21.7082C54.1077 19.9781 52.46 19.1131 49.9885 19.1131C46.9815 19.1131 44.9219 20.39 43.8097 22.9439C43.233 24.3032 42.9446 25.9921 42.9446 28.0929V46.4233H34.0884V12.5635H42.6975V17.5066C43.8509 15.7765 44.9219 14.4996 45.9517 13.7581C47.7641 12.3988 50.0709 11.6985 52.8719 11.6985C56.4144 11.6985 59.2566 12.6459 61.481 14.4584Z" fill="#E3E3E3"/>
<path d="M66.8179 18.6786V12.3351H71.5549V2.90213H80.37V12.3351H85.8897V18.6375H80.37V36.5559C80.37 37.9565 80.5348 38.8215 80.9055 39.151C81.2762 39.4806 82.3472 39.6453 84.1597 39.6453C84.448 39.6453 84.7364 39.6453 85.0247 39.6453C85.3131 39.6453 85.6426 39.6041 85.9309 39.6041V46.236L81.7294 46.4008C77.5278 46.5656 74.6443 45.8241 73.1202 44.2176C72.1316 43.1878 71.6373 41.6226 71.6373 39.5218V18.6786H66.8179Z" fill="#E3E3E3"/>
<path d="M118.454 41.1096C115.57 44.6521 111.204 46.4233 105.355 46.4233C99.5056 46.4233 95.1393 44.6521 92.2558 41.1096C89.3724 37.5671 87.9307 33.3243 87.9307 28.3401C87.9307 23.4382 89.3724 19.2366 92.2558 15.6529C95.1393 12.0692 99.5056 10.298 105.355 10.298C111.204 10.298 115.57 12.0692 118.454 15.6529C121.337 19.2366 122.779 23.4794 122.779 28.3401C122.779 33.3243 121.337 37.5671 118.454 41.1096ZM111.328 36.2077C112.728 34.3541 113.428 31.759 113.428 28.3401C113.428 24.9623 112.728 22.326 111.328 20.5136C109.927 18.7011 107.95 17.7537 105.314 17.7537C102.719 17.7537 100.7 18.66 99.2996 20.5136C97.8991 22.326 97.1989 24.9623 97.1989 28.3401C97.1989 31.7178 97.8991 34.3541 99.2996 36.2077C100.7 38.0614 102.719 38.9676 105.314 38.9676C107.95 38.9676 109.927 38.0614 111.328 36.2077Z" fill="#E3E3E3"/>
<path d="M152.213 14.4584C154.437 16.312 155.55 19.319 155.55 23.603V46.4233H146.405V25.8273C146.405 24.0561 146.158 22.6968 145.705 21.7082C144.84 19.9781 143.192 19.1131 140.721 19.1131C137.714 19.1131 135.654 20.39 134.542 22.9439C133.965 24.3032 133.677 25.9921 133.677 28.0929V46.4233H124.779V12.5635H133.388V17.5066C134.542 15.7765 135.613 14.4996 136.643 13.7581C138.455 12.3988 140.762 11.6985 143.604 11.6985C147.147 11.6985 149.989 12.6459 152.213 14.4584Z" fill="#E3E3E3"/>
<path d="M182.429 12.0692C184.818 13.1402 186.754 14.7879 188.32 17.0947C189.72 19.1131 190.626 21.461 191.038 24.0973C191.286 25.6626 191.368 27.8869 191.327 30.8116H166.529C166.653 34.2305 167.847 36.5784 170.072 37.979C171.431 38.844 173.079 39.2559 174.974 39.2559C176.992 39.2559 178.64 38.7204 179.917 37.6906C180.617 37.1139 181.235 36.3725 181.729 35.3427H190.832C190.585 37.3611 189.473 39.3795 187.537 41.4803C184.489 44.7756 180.205 46.4233 174.726 46.4233C170.195 46.4233 166.2 45.0228 162.739 42.2629C159.279 39.5031 157.549 34.972 157.549 28.7108C157.549 22.8203 159.115 18.3304 162.245 15.1998C165.376 12.0692 169.454 10.5039 174.438 10.5039C177.363 10.4628 180.04 10.9983 182.429 12.0692ZM169.083 19.6897C167.806 20.9667 167.023 22.738 166.694 24.9211H182.059C181.894 22.5732 181.111 20.8019 179.669 19.5662C178.228 18.3304 176.498 17.7537 174.397 17.7537C172.131 17.7537 170.36 18.4128 169.083 19.6897Z" fill="#E3E3E3"/>
<path d="M202.234 46.4233H193.337V0.576691H202.234V46.4233Z" fill="#E3E3E3"/>
<path d="M213.132 46.4233H204.234V0.576691H213.132V46.4233Z" fill="#E3E3E3"/>
<path d="M245.655 41.1096C242.772 44.6521 238.405 46.4233 232.556 46.4233C226.707 46.4233 222.34 44.6521 219.457 41.1096C216.574 37.5671 215.132 33.3243 215.132 28.3401C215.132 23.4382 216.574 19.2366 219.457 15.6529C222.34 12.0692 226.707 10.298 232.556 10.298C238.405 10.298 242.772 12.0692 245.655 15.6529C248.538 19.2366 249.98 23.4794 249.98 28.3401C249.98 33.3243 248.538 37.5671 245.655 41.1096ZM238.529 36.2077C239.929 34.3541 240.63 31.759 240.63 28.3401C240.63 24.9623 239.929 22.326 238.529 20.5136C237.128 18.7011 235.151 17.7537 232.515 17.7537C229.879 17.7537 227.901 18.66 226.501 20.5136C225.1 22.326 224.4 24.9623 224.4 28.3401C224.4 31.7178 225.1 34.3541 226.501 36.2077C227.901 38.0614 229.92 38.9676 232.515 38.9676C235.11 38.9676 237.128 38.0614 238.529 36.2077Z" fill="#E3E3E3"/>
</svg>
